HIERARCHY
ROOT Hips
{
	OFFSET 0.000000 0.000000 0.000000
	CHANNELS 6 Xposition Yposition Zposition Xrotation Yrotation Zrotation
	JOINT LeftUpLeg_virtual
	{
		OFFSET 0.000000 0.000000 0.000000
		CHANNELS 3 Xrotation Yrotation Zrotation
		JOINT LeftUpLeg
		{
			OFFSET 15.427100 -6.655098 0.678600
			CHANNELS 3 Xrotation Yrotation Zrotation
			JOINT LeftLeg
			{
				OFFSET 4.081073 -39.591068 13.024000
				CHANNELS 3 Xrotation Yrotation Zrotation
				JOINT LeftFoot
				{
					OFFSET -4.081074 -37.707932 -15.979700
					CHANNELS 3 Xrotation Yrotation Zrotation
					JOINT LeftToeBase
					{
						OFFSET 5.346399 -15.068900 20.645000
						CHANNELS 3 Xrotation Yrotation Zrotation
						JOINT LeftToe_End
						{
							OFFSET 2.754700 0.931300 11.300900
							CHANNELS 3 Xrotation Yrotation Zrotation
							End Site
							{
								OFFSET 0 0 0
							}
						}
					}
				}
			}
		}
	}
	JOINT RightUpLeg_virtual
	{
		OFFSET 0.000000 0.000000 0.000000
		CHANNELS 3 Xrotation Yrotation Zrotation
		JOINT RightUpLeg
		{
			OFFSET -15.569500 -6.655098 0.678600
			CHANNELS 3 Xrotation Yrotation Zrotation
			JOINT RightLeg
			{
				OFFSET -4.081825 -39.591045 13.023800
				CHANNELS 3 Xrotation Yrotation Zrotation
				JOINT RightFoot
				{
					OFFSET 4.081824 -37.707954 -15.979600
					CHANNELS 3 Xrotation Yrotation Zrotation
					JOINT RightToeBase
					{
						OFFSET -5.346400 -15.068900 20.645000
						CHANNELS 3 Xrotation Yrotation Zrotation
						JOINT RightToe_End
						{
							OFFSET -2.754700 0.931300 11.300900
							CHANNELS 3 Xrotation Yrotation Zrotation
							End Site
							{
								OFFSET 0 0 0
							}
						}
					}
				}
			}
		}
	}
	JOINT Spine_virtual
	{
		OFFSET 0.000000 0.000000 0.000000
		CHANNELS 3 Xrotation Yrotation Zrotation
		JOINT Spine
		{
			OFFSET -0.279200 12.230698 -2.892100
			CHANNELS 3 Xrotation Yrotation Zrotation
			JOINT Spine1
			{
				OFFSET -0.232667 10.192268 -1.242267
				CHANNELS 3 Xrotation Yrotation Zrotation
				JOINT Spine1_split
				{
					OFFSET -0.232667 10.192268 -1.242267
					CHANNELS 3 Xrotation Yrotation Zrotation
					JOINT Spine2
					{
						OFFSET -0.232667 10.192268 -1.242267
						CHANNELS 3 Xrotation Yrotation Zrotation
						JOINT Neck_virtual
						{
							OFFSET 0.000000 0.000000 0.000000
							CHANNELS 3 Xrotation Yrotation Zrotation
							JOINT Neck
							{
								OFFSET -0.418800 17.814194 8.416900
								CHANNELS 3 Xrotation Yrotation Zrotation
								JOINT Head
								{
									OFFSET 0.000000 7.031097 3.806800
									CHANNELS 3 Xrotation Yrotation Zrotation
									JOINT HeadTop_End
									{
										OFFSET 0.000000 24.646606 12.978600
										CHANNELS 3 Xrotation Yrotation Zrotation
										End Site
										{
											OFFSET 0 0 0
										}
									}
								}
							}
						}
						JOINT LeftShoulder_virtual
						{
							OFFSET 0.000000 0.000000 0.000000
							CHANNELS 3 Xrotation Yrotation Zrotation
							JOINT LeftShoulder
							{
								OFFSET 8.476499 7.247704 -3.868750
								CHANNELS 3 Xrotation Yrotation Zrotation
								JOINT LeftShoulder_split
								{
									OFFSET 8.476499 7.247704 -3.868750
									CHANNELS 3 Xrotation Yrotation Zrotation
									JOINT LeftArm
									{
										OFFSET 9.308998 -2.777710 0.208600
										CHANNELS 3 Xrotation Yrotation Zrotation
										JOINT LeftForeArm
										{
											OFFSET 29.972298 0.000000 0.000000
											CHANNELS 3 Xrotation Yrotation Zrotation
											JOINT LeftHand
											{
												OFFSET 26.026505 0.000000 0.000000
												CHANNELS 3 Xrotation Yrotation Zrotation
												End Site
												{
													OFFSET 0 0 0
												}
											}
										}
									}
								}
							}
						}
						JOINT RightShoulder_virtual
						{
							OFFSET 0.000000 0.000000 0.000000
							CHANNELS 3 Xrotation Yrotation Zrotation
							JOINT RightShoulder
							{
								OFFSET -7.570500 7.247704 -3.868750
								CHANNELS 3 Xrotation Yrotation Zrotation
								JOINT RightShoulder_split
								{
									OFFSET -7.570500 7.247704 -3.868750
									CHANNELS 3 Xrotation Yrotation Zrotation
									JOINT RightArm
									{
										OFFSET -9.308998 -2.777710 0.208500
										CHANNELS 3 Xrotation Yrotation Zrotation
										JOINT RightForeArm
										{
											OFFSET -29.972300 0.000000 0.000000
											CHANNELS 3 Xrotation Yrotation Zrotation
											JOINT RightHand
											{
												OFFSET -26.026505 0.000000 0.000000
												CHANNELS 3 Xrotation Yrotation Zrotation
												End Site
												{
													OFFSET 0 0 0
												}
											}
										}
									}
								}
							}
						}
					}
				}
			}
		}
	}
}
MOTION
Frames: 7
Frame Time: 0.03333333
12.683881 86.091576 -1.357914 0.000000 0.000000 0.000000 2.147829 -44.827870 2.623724 -19.158720 14.918783 8.265565 33.238156 19.204760 3.578504 -8.553419 14.398445 -14.700073 -0.988512 -1.125232 -3.117828 0.000000 0.000000 0.000000 1.998472 -44.275376 2.921374 -23.318034 -37.256899 -24.680685 30.400680 -7.894237 -7.708851 -15.202720 -3.496476 8.655641 -8.302682 3.388609 5.215310 0.000000 0.000000 0.000000 3.757978 -42.093646 3.069289 11.097386 -7.338657 2.490952 3.055757 -2.097621 -1.993179 -0.242315 -0.465701 0.868586 0.000000 0.000000 0.000000 -7.679316 -3.935916 -0.768460 -9.589537 -4.903561 -4.980866 10.368536 -22.439103 7.781481 0.000000 0.000000 0.000000 -8.819709 -3.896877 -1.224521 -0.890523 2.414091 -6.720681 1.036784 -2.963097 1.587912 9.567687 5.519967 -58.859613 -1.048342 -46.043835 0.238636 0.000000 0.000000 0.000000 -8.838162 -4.278914 -1.184633 -0.987443 -1.178983 5.942846 -3.146399 -3.925075 -2.110833 7.529115 18.283436 71.747169 0.241391 49.617547 1.307498 0.000000 0.000000 0.000000 
12.166258 85.992523 -1.978748 0.000000 0.000000 0.000000 1.319970 -48.393482 2.392050 -18.422789 15.240334 8.898059 34.372384 19.961271 3.479267 -7.803451 14.878643 -14.365758 -0.779311 -0.683741 -4.048562 0.000000 0.000000 0.000000 1.302748 -47.676168 2.685116 -22.081759 -37.693789 -24.440054 29.193738 -8.878443 -8.060299 -15.674193 -4.707868 8.990116 -7.798012 3.539901 4.179023 0.000000 0.000000 0.000000 2.997156 -45.378179 2.838272 11.029106 -7.268084 2.414584 2.804928 -1.884606 -1.826781 -0.253972 -0.622930 0.958518 0.000000 0.000000 0.000000 -7.889932 -3.773720 -0.591243 -9.311307 -4.014924 -5.146977 10.648354 -20.615661 7.309146 0.000000 0.000000 0.000000 -9.043476 -3.693261 -1.054014 -0.813671 2.196330 -6.670761 1.046554 -3.336823 1.705485 9.053336 5.110735 -58.312125 -1.187621 -45.272519 0.234425 0.000000 0.000000 0.000000 -9.025328 -4.094893 -1.039258 -1.212908 -0.398664 5.808306 -3.139361 -3.852416 -2.188971 7.150752 16.911437 71.964874 0.130923 48.103212 1.382358 0.000000 0.000000 0.000000 
11.537528 85.866257 -2.744133 0.000000 0.000000 0.000000 0.515056 -51.716259 1.836785 -18.527592 15.538604 10.218923 35.951609 20.513290 3.325610 -6.255178 14.947092 -13.983083 -0.644731 -0.318498 -5.374584 0.000000 0.000000 0.000000 0.403183 -50.729765 2.032208 -21.078244 -37.752221 -23.705150 27.943953 -9.405206 -8.144196 -15.618643 -5.194824 9.476296 -8.453559 3.654196 3.281586 0.000000 0.000000 0.000000 2.309551 -48.422114 2.391792 10.999855 -6.878648 2.301954 2.600665 -1.766418 -1.586832 -0.199065 -0.767486 1.018472 0.000000 0.000000 0.000000 -8.062843 -3.676515 -0.351186 -9.061103 -3.319982 -5.261156 10.855303 -19.103590 6.812528 0.000000 0.000000 0.000000 -9.205743 -3.580285 -0.804355 -0.759681 1.932546 -6.581979 1.065407 -3.490940 1.680319 8.365810 4.500234 -57.983573 -1.177728 -44.631403 0.354466 0.000000 0.000000 0.000000 -9.191515 -3.985748 -0.813744 -1.410688 0.217642 5.672480 -3.017656 -3.747469 -2.344789 6.652949 15.322530 72.075202 0.025124 46.095027 1.457308 0.000000 0.000000 0.000000 
10.827713 85.812958 -3.515972 0.000000 0.000000 0.000000 -0.281393 -54.573437 0.986974 -19.365670 15.813705 12.067909 37.442394 20.740610 3.248355 -4.081205 14.442570 -13.587753 -1.169186 -0.070091 -6.717060 0.000000 0.000000 0.000000 -0.581892 -53.452835 1.037667 -20.106515 -37.395381 -22.501496 26.619798 -9.518296 -8.056906 -15.252531 -5.066773 10.189631 -9.884159 3.714664 2.619124 0.000000 0.000000 0.000000 1.751295 -51.202691 1.793546 11.008066 -6.237251 2.174818 2.444310 -1.747754 -1.279928 -0.060585 -0.950459 0.985416 0.000000 0.000000 0.000000 -8.181861 -3.656418 -0.051354 -8.839868 -2.807396 -5.348796 10.970476 -17.886322 6.326865 0.000000 0.000000 0.000000 -9.304293 -3.566084 -0.488349 -0.730325 1.611493 -6.492510 1.117423 -3.314641 1.599776 7.628457 3.648399 -57.783865 -1.091320 -44.117838 0.519700 0.000000 0.000000 0.000000 -9.334697 -3.962623 -0.504204 -1.571147 0.657929 5.543884 -2.797481 -3.510312 -2.544239 6.116189 13.557670 72.099689 -0.038829 43.725498 1.506519 0.000000 0.000000 0.000000 
10.126187 85.873627 -4.292358 0.000000 0.000000 0.000000 -1.043879 -56.930938 -0.053556 -20.619682 16.030860 14.131547 38.360999 20.317222 3.310600 -1.836753 13.310919 -13.268212 -2.564356 0.060225 -7.659316 0.000000 0.000000 0.000000 -1.451165 -55.913124 -0.070619 -18.703344 -36.653459 -20.704267 25.143106 -9.641137 -7.893088 -15.175840 -4.779402 10.425321 -10.849434 3.702832 2.283119 0.000000 0.000000 0.000000 1.428505 -53.799327 1.214643 11.042064 -5.422332 2.029472 2.319377 -1.792430 -0.925001 0.078702 -1.132840 0.884244 0.000000 0.000000 0.000000 -8.265443 -3.688482 0.294104 -8.607313 -2.456333 -5.485247 11.022430 -16.951136 5.883652 0.000000 0.000000 0.000000 -9.345806 -3.627014 -0.129872 -0.728400 1.291730 -6.435848 1.191624 -2.775151 1.413033 6.945205 2.501384 -57.636770 -1.004800 -43.631931 0.655121 0.000000 0.000000 0.000000 -9.448164 -4.001805 -0.136354 -1.677989 0.920250 5.450731 -2.561537 -3.154407 -2.777284 5.634010 11.656280 72.073502 -0.035790 41.112705 1.515900 0.000000 0.000000 0.000000 
9.403282 86.048286 -4.916611 0.000000 0.000000 0.000000 -1.529231 -58.874871 -0.995872 -22.051259 16.396632 16.118910 38.516939 19.371330 3.288369 -0.681032 11.796412 -12.412798 -3.875453 -0.003142 -8.121354 0.000000 0.000000 0.000000 -2.212466 -58.141808 -1.141690 -16.778923 -35.490353 -18.463419 23.458051 -9.987612 -7.682981 -15.640329 -4.643261 9.883816 -10.451553 3.638751 2.257454 0.000000 0.000000 0.000000 1.353945 -56.244644 0.796003 11.075620 -4.501076 1.884693 2.208619 -1.858646 -0.557851 0.165620 -1.224080 0.781241 0.000000 0.000000 0.000000 -8.325001 -3.732964 0.650165 -8.349324 -2.237290 -5.712796 11.051967 -16.257298 5.514617 0.000000 0.000000 0.000000 -9.361067 -3.711638 0.240368 -0.753724 1.045241 -6.405676 1.348313 -2.006665 1.219498 6.493386 1.030337 -57.481697 -0.997569 -43.184837 0.697737 0.000000 0.000000 0.000000 -9.532373 -4.063572 0.252783 -1.735378 1.016107 5.374048 -2.348907 -2.679012 -2.998070 5.238192 9.681563 71.964560 0.014565 38.381886 1.490840 0.000000 0.000000 0.000000 
8.670757 86.326645 -5.418365 0.000000 0.000000 0.000000 -1.731796 -60.505736 -1.677703 -23.618704 16.844886 17.843130 38.172285 17.924845 3.016517 -0.662925 10.044824 -11.114247 -4.208384 -0.309388 -8.073502 0.000000 0.000000 0.000000 -2.783283 -60.271980 -1.982272 -14.628317 -33.763182 -16.096208 21.765865 -10.457394 -7.472511 -16.407316 -4.795008 9.008496 -9.369580 3.528101 2.467844 0.000000 0.000000 0.000000 1.537613 -58.591514 0.644908 11.122537 -3.524873 1.740586 2.102296 -1.876460 -0.214995 0.150917 -1.278163 0.668887 0.000000 0.000000 0.000000 -8.386287 -3.727371 0.981317 -8.075337 -2.113161 -6.084219 11.096901 -15.750035 5.236280 0.000000 0.000000 0.000000 -9.365355 -3.752646 0.587060 -0.802767 0.912919 -6.401739 1.469825 -1.163351 0.987255 6.294920 -0.722322 -57.307705 -1.102770 -42.759125 0.628195 0.000000 0.000000 0.000000 -9.590773 -4.081304 0.624572 -1.741304 0.985495 5.301475 -2.217637 -2.228029 -3.173524 4.951360 7.752102 71.722826 0.093572 35.684771 1.445765 0.000000 0.000000 0.000000 
